<?xml version="1.0" encoding="UTF-8"?>
<svg id="Dark" xmlns="http://www.w3.org/2000/svg" viewBox="0 0 1080 1080">
  <defs>
    <style>
      .cls-1 {
        stroke-width: .6px;
      }

      .cls-1, .cls-2, .cls-3, .cls-4, .cls-5, .cls-6, .cls-7, .cls-8, .cls-9, .cls-10, .cls-11, .cls-12, .cls-13, .cls-14, .cls-15, .cls-16, .cls-17, .cls-18, .cls-19, .cls-20 {
        stroke: #fff;
      }

      .cls-1, .cls-2, .cls-3, .cls-4, .cls-5, .cls-6, .cls-7, .cls-8, .cls-9, .cls-11, .cls-12, .cls-21, .cls-13, .cls-14, .cls-16, .cls-17, .cls-18, .cls-19, .cls-20 {
        stroke-miterlimit: 10;
      }

      .cls-1, .cls-22, .cls-8 {
        fill: #fff;
      }

      .cls-2 {
        stroke-width: 1.13px;
      }

      .cls-2, .cls-3, .cls-4, .cls-5, .cls-6, .cls-7, .cls-9, .cls-10, .cls-11, .cls-12, .cls-13, .cls-14, .cls-15, .cls-16, .cls-17, .cls-18, .cls-19, .cls-20 {
        fill: none;
      }

      .cls-23, .cls-22, .cls-8 {
        stroke-width: 0px;
      }

      .cls-23, .cls-21 {
        fill: #051b3b;
      }

      .cls-3 {
        stroke-width: .67px;
      }

      .cls-4, .cls-18 {
        stroke-width: .73px;
      }

      .cls-5 {
        stroke-width: .67px;
      }

      .cls-6 {
        stroke-width: .66px;
      }

      .cls-7 {
        stroke-width: .66px;
      }

      .cls-9 {
        stroke-width: .66px;
      }

      .cls-10 {
        stroke-width: .38px;
      }

      .cls-10, .cls-14, .cls-15, .cls-18 {
        stroke-linecap: round;
      }

      .cls-10, .cls-15 {
        stroke-linejoin: bevel;
      }

      .cls-11 {
        stroke-width: 1.75px;
      }

      .cls-12 {
        stroke-width: 1.09px;
      }

      .cls-21 {
        stroke: #231f20;
      }

      .cls-13 {
        stroke-width: 1.5px;
      }

      .cls-14, .cls-15 {
        stroke-width: 2.93px;
      }

      .cls-16 {
        stroke-width: 1.67px;
      }

      .cls-17 {
        stroke-width: .65px;
      }

      .cls-19 {
        stroke-width: .67px;
      }

      .cls-20 {
        stroke-width: .66px;
      }
    </style>
  </defs>
  <rect class="cls-21" width="1080" height="1080"/>
  <g>
    <g>
      <circle class="cls-14" cx="395.93" cy="788.63" r="94.42"/>
      <path class="cls-14" d="M318.96,544.28c0,14.73-3.36,28.65-9.4,41.09-15.26,31.55-47.58,53.35-85,53.35-52.19,0-94.44-42.3-94.44-94.44s42.25-94.39,94.44-94.39c36.03,0,67.32,20.14,83.21,49.77,7.16,13.29,11.19,28.47,11.19,44.62Z"/>
      <path class="cls-14" d="M309.56,585.37c6.04-12.44,9.4-26.36,9.4-41.09h154.37"/>
      <line class="cls-14" x1="432.24" y1="585.37" x2="396.98" y2="620.64"/>
      <line class="cls-14" x1="534.34" y1="585.37" x2="432.24" y2="585.37"/>
      <path class="cls-14" d="M431.98,499.66h102.36v44.62h-215.38c0-16.16-4.03-31.33-11.19-44.62"/>
      <line class="cls-14" x1="396.98" y1="694.27" x2="396.98" y2="620.64"/>
      <line class="cls-14" x1="396.98" y1="464.66" x2="396.98" y2="385.71"/>
      <path class="cls-14" d="M608.23,342.24l-30.12,30.12-13.74,13.74-30.03,30.03v341.82h341.77l30.12-30.12,43.64-43.64v-341.95h-341.64ZM919.88,669.92l-57.92,57.92h-297.6v-298l57.42-57.47h298.09v297.55Z"/>
      <line class="cls-15" x1="431.98" y1="499.66" x2="396.98" y2="464.66"/>
      <polygon class="cls-10" points="682.4 463.85 682.53 463.85 682.44 464.03 682.4 463.85"/>
      <circle class="cls-14" cx="394.22" cy="291.37" r="94.42"/>
    </g>
    <g>
      <g>
        <g>
          <circle class="cls-22" cx="831.93" cy="472.5" r="24.49"/>
          <polygon class="cls-22" points="853.99 507.24 810.04 516.52 810.21 641.84 854.15 641.84 853.99 507.24"/>
        </g>
        <path class="cls-22" d="M777.91,604.17l-13.65-35.18-40.91-105.14h-40.82l-.09.18-41.09,104.96-13.74,35.18-14.77,37.69h38.76l14.77-37.69h70.58l14.68,37.69h40.95l-14.68-37.69ZM680.12,568.99l21.66-55.32,21.53,55.32h-43.19Z"/>
      </g>
      <g>
        <g>
          <g>
            <ellipse class="cls-16" cx="184.04" cy="549.68" rx="18.92" ry="31.69" transform="translate(-373.05 709.89) rotate(-87.53)"/>
            <ellipse class="cls-12" cx="212.45" cy="513.49" rx="21.18" ry="11.95" transform="translate(-77.78 39.6) rotate(-9.01)"/>
            <ellipse class="cls-2" cx="262.27" cy="523.21" rx="12.46" ry="22.08" transform="translate(-271.75 762.71) rotate(-87.53)"/>
            <ellipse class="cls-11" cx="249.04" cy="567.41" rx="33.65" ry="19.46" transform="translate(-85.77 45.99) rotate(-9.01)"/>
          </g>
          <g>
            <ellipse class="cls-8" cx="182.97" cy="548.52" rx="2.96" ry="4.96" transform="translate(-372.92 707.7) rotate(-87.53)"/>
            <ellipse class="cls-8" cx="212.42" cy="513.32" rx="3.11" ry="1.75" transform="translate(-77.75 39.59) rotate(-9.01)"/>
            <ellipse class="cls-8" cx="262.07" cy="523.32" rx="2.22" ry="3.66" transform="translate(-272.05 762.61) rotate(-87.53)"/>
            <ellipse class="cls-8" cx="249.04" cy="567.78" rx="4.77" ry="2.76" transform="translate(-85.83 46) rotate(-9.01)"/>
            <path class="cls-22" d="M190.76,545s11.55-6.3,19-10.21c3.12-1.64,5.42-2.43,6.53-4.88,1.71-3.78.04-10.09-.87-13.51,1.08,1,4.16,4.32,6.12,5.94,1.89,1.56,3.81,2.59,5.55,3.42,2.48,1.18,4.89,1.33,10.07.92,4.63-.37,11.87-1.57,18.21-2.95-1.87,1.19-4.9,3.02-8.26,4.41-4.65,1.92-7.01,2.02-8.36,4.09-1.54,2.36-.66,5.43.61,9.34,1.63,5.02,4.18,11.27,7.39,18.86-6.02-6.56-10.59-11.87-13.55-15.93-2.17-2.97-3.98-5.66-7.51-7.02-3.87-1.49-7.51-.49-11.47.67-12.39,3.62-23.46,6.85-23.46,6.85Z"/>
          </g>
        </g>
        <g>
          <path class="cls-13" d="M437.48,755.18c0,4.16-3.94,7.92-10.47,10.88-7.97,3.54-19.78,5.82-33.03,5.82s-25.11-2.28-33.08-5.82c-6.53-2.95-10.47-6.71-10.47-10.88,0-9.18,19.47-16.65,43.55-16.65s43.5,7.47,43.5,16.65Z"/>
          <path class="cls-13" d="M437.48,755.18v21.71c0,4.43-4.48,8.41-11.77,11.41-7.92,3.27-19.2,5.28-31.73,5.28s-23.86-2.01-31.78-5.28c-7.3-3-11.77-6.98-11.77-11.41v-21.71c0,4.16,3.94,7.92,10.47,10.88,7.97,3.54,19.83,5.82,33.08,5.82s25.06-2.28,33.03-5.82c6.53-2.95,10.47-6.71,10.47-10.88Z"/>
          <path class="cls-13" d="M437.48,776.89v22.78c0,4.12-3.89,7.88-10.34,10.83h-.04c-7.97,3.58-19.83,5.86-33.12,5.86s-25.2-2.28-33.17-5.86h-.04c-6.45-2.95-10.34-6.71-10.34-10.83v-22.78c0,4.43,4.48,8.41,11.77,11.41,7.92,3.27,19.2,5.28,31.78,5.28s23.81-2.01,31.73-5.28c7.3-3,11.77-6.98,11.77-11.41Z"/>
          <path class="cls-13" d="M437.48,799.67v21.62c0,9.22-19.47,16.69-43.5,16.69s-43.55-7.47-43.55-16.69v-21.62c0,4.12,3.89,7.88,10.34,10.83h.04c7.97,3.58,19.87,5.86,33.17,5.86s25.15-2.28,33.12-5.86h.04c6.45-2.95,10.34-6.71,10.34-10.83Z"/>
        </g>
        <g>
          <g>
            <g>
              <g>
                <circle class="cls-22" cx="393.76" cy="230.11" r="4.83"/>
                <circle class="cls-22" cx="411.87" cy="239.18" r="4.83"/>
                <circle class="cls-22" cx="375.57" cy="239.18" r="4.83"/>
                <circle class="cls-22" cx="349.21" cy="246.69" r="4.83"/>
                <circle class="cls-22" cx="341.82" cy="273.17" r="4.83"/>
                <circle class="cls-22" cx="332.73" cy="291.18" r="4.83"/>
                <circle class="cls-22" cx="341.8" cy="309.2" r="4.83"/>
                <circle class="cls-22" cx="349.39" cy="335.25" r="4.83"/>
                <circle class="cls-22" cx="375.82" cy="343.18" r="4.83"/>
                <circle class="cls-22" cx="411.95" cy="343.18" r="4.83"/>
                <circle class="cls-22" cx="438.32" cy="335.8" r="4.83"/>
                <circle class="cls-22" cx="454.74" cy="291.54" r="4.83"/>
                <circle class="cls-22" cx="445.64" cy="309.36" r="4.83"/>
                <circle class="cls-22" cx="445.64" cy="273.35" r="4.83"/>
                <circle class="cls-22" cx="438.13" cy="246.74" r="4.83"/>
                <circle class="cls-22" cx="393.88" cy="352.15" r="4.83"/>
              </g>
              <polygon class="cls-1" points="418.24 275.11 418.24 307.6 414.16 311.68 409.82 316.02 377.33 316.02 373.03 311.68 368.96 307.6 368.96 275.11 373.34 270.72 377.37 266.69 409.78 266.69 413.94 270.81 418.24 275.11"/>
            </g>
            <g>
              <polyline class="cls-18" points="445.64 273.35 442.24 276.75 436.51 282.48"/>
              <polyline class="cls-18" points="375.82 343.17 379.22 339.77 385.13 333.86"/>
              <polyline class="cls-4" points="413.95 270.8 430.74 254.11 430.96 253.88 434.68 250.12 438.12 246.72"/>
              <polyline class="cls-4" points="349.37 335.25 352.82 331.81 356.13 328.49 356.62 328 373.05 311.66"/>
              <polyline class="cls-18" points="445.64 309.34 442.24 305.94 442.06 305.76 435.89 299.58"/>
              <polyline class="cls-18" points="385.13 248.73 378.95 242.56 375.55 239.16"/>
              <polyline class="cls-18" points="411.85 239.16 408.45 242.56 402.32 248.69"/>
              <polyline class="cls-18" points="341.8 309.2 345.21 305.8 345.25 305.76 351.43 299.58"/>
              <polyline class="cls-4" points="414.18 311.66 431.01 328.49 434.9 332.39 438.3 335.79"/>
              <polyline class="cls-4" points="349.37 246.72 352.68 250.03 356.62 253.97 356.75 254.11 373.36 270.71"/>
              <polyline class="cls-18" points="351.11 282.48 345.21 276.57 341.8 273.17"/>
              <polyline class="cls-18" points="411.94 343.17 408.54 339.77 402.32 333.55"/>
              <line class="cls-6" x1="368.97" y1="276.53" x2="359.93" y2="276.53"/>
              <polyline class="cls-17" points="418.25 276.53 427.11 276.53 427.56 276.53"/>
              <line class="cls-4" x1="356.75" y1="254.11" x2="356.62" y2="254.11"/>
              <polyline class="cls-4" points="402.32 254.11 396.9 254.11 393.77 254.11 390.5 254.11 385.13 254.11"/>
              <polyline class="cls-18" points="418.83 282.48 430.96 282.48 436.51 282.48"/>
              <polyline class="cls-18" points="351.11 282.48 356.62 282.48 368.53 282.48"/>
              <polyline class="cls-18" points="419.42 299.58 430.96 299.58 435.89 299.58"/>
              <polyline class="cls-18" points="368.26 299.58 356.62 299.58 351.43 299.58"/>
              <line class="cls-3" x1="368.97" y1="305.76" x2="359.75" y2="305.76"/>
              <line class="cls-20" x1="427.56" y1="305.76" x2="418.25" y2="305.76"/>
              <line class="cls-5" x1="378.86" y1="325.23" x2="378.86" y2="316.01"/>
              <line class="cls-9" x1="378.86" y1="266.68" x2="378.86" y2="257.42"/>
              <line class="cls-4" x1="356.62" y1="254.11" x2="356.62" y2="253.97"/>
              <line class="cls-7" x1="408.4" y1="325.23" x2="408.4" y2="316.01"/>
              <line class="cls-19" x1="408.4" y1="266.68" x2="408.4" y2="257.24"/>
              <polyline class="cls-4" points="430.96 282.48 430.96 288.03 430.96 291.43 430.96 294.66 430.96 299.58"/>
              <polyline class="cls-18" points="402.32 316.68 402.32 328.49 402.32 333.55"/>
              <polyline class="cls-18" points="402.32 265.97 402.32 254.11 402.32 248.69"/>
              <line class="cls-4" x1="385.13" y1="316.41" x2="384.73" y2="316.01"/>
              <polyline class="cls-18" points="385.13 316.41 385.13 328.49 385.13 333.86"/>
              <polyline class="cls-18" points="385.13 248.73 385.13 254.11 385.13 265.88"/>
              <polyline class="cls-4" points="454.73 291.17 430.96 291.17 418.25 291.17"/>
              <line class="cls-4" x1="368.97" y1="291.17" x2="332.72" y2="291.17"/>
              <line class="cls-4" x1="393.77" y1="352.17" x2="393.77" y2="316.01"/>
              <line class="cls-4" x1="393.77" y1="266.68" x2="393.77" y2="230.12"/>
            </g>
          </g>
          <g>
            <g>
              <circle class="cls-23" cx="402.03" cy="284.95" r="2.09"/>
              <polygon class="cls-23" points="403.91 287.92 400.16 288.71 400.18 299.39 403.92 299.39 403.91 287.92"/>
            </g>
            <path class="cls-23" d="M397.42,296.18l-1.16-3-3.49-8.96h-3.48v.02s-3.51,8.95-3.51,8.95l-1.17,3-1.26,3.21h3.31l1.26-3.21h6.02l1.25,3.21h3.49l-1.25-3.21ZM389.08,293.18l1.85-4.72,1.84,4.72h-3.68Z"/>
          </g>
        </g>
      </g>
    </g>
  </g>
</svg>